<?xml version="1.0" standalone="no"?>
<!DOCTYPE svg PUBLIC "-//W3C//DTD SVG 20010904//EN"
 "http://www.w3.org/TR/2001/REC-SVG-20010904/DTD/svg10.dtd">
<svg version="1.0" xmlns="http://www.w3.org/2000/svg"
 width="260.000000pt" height="260.000000pt" viewBox="0 0 260.000000 260.000000"
 preserveAspectRatio="xMidYMid meet">
<metadata>
Created by potrace 1.14, written by Peter Selinger 2001-2017
</metadata>
<g transform="translate(0.000000,260.000000) scale(0.100000,-0.100000)"
fill="#000000" stroke="none">
<path d="M0 1300 l0 -1300 1300 0 1300 0 0 1300 0 1300 -1300 0 -1300 0 0
-1300z m1265 1137 c17 -9 36 -17 44 -17 14 0 71 -33 105 -60 63 -52 120 -140
142 -223 18 -67 18 -197 0 -263 -7 -29 -26 -74 -41 -102 -39 -72 -140 -172
-173 -172 -11 0 -10 -3 2 -15 8 -8 20 -15 26 -15 14 0 120 -49 138 -64 128
-104 185 -247 185 -466 1 -273 -87 -511 -246 -665 -86 -83 -112 -105 -152
-125 -17 -8 -32 -17 -35 -20 -12 -12 -99 -50 -114 -50 -9 0 -31 -8 -49 -17
-26 -14 -61 -17 -182 -18 -133 0 -159 3 -225 24 -262 86 -466 323 -563 656
-26 88 -30 354 -8 450 32 140 112 260 202 303 108 52 209 9 275 -118 55 -106
43 -235 -30 -314 -26 -29 -40 -36 -69 -36 -20 0 -37 2 -37 4 0 2 7 20 16 41 9
22 13 49 9 66 -7 32 -59 89 -80 89 -20 0 -82 -64 -104 -108 -74 -146 -35 -398
93 -600 33 -53 148 -168 176 -177 11 -3 20 -10 20 -15 0 -5 17 -14 38 -21 20
-6 42 -16 49 -21 32 -25 305 -25 336 0 7 6 31 15 55 21 23 7 42 16 42 20 0 5
11 12 25 15 40 10 158 133 200 210 74 132 111 348 86 492 -42 235 -147 364
-322 397 -49 9 -60 15 -69 38 -16 37 1 69 38 69 89 0 158 43 197 120 68 134
56 339 -28 475 -36 59 -132 120 -178 113 -30 -4 -59 -47 -70 -99 -12 -64 -11
-1315 1 -1380 6 -29 19 -72 30 -94 11 -23 20 -44 20 -48 0 -4 -88 -7 -195 -7
l-195 0 23 58 22 57 0 710 c0 733 -3 789 -42 867 -7 15 -13 32 -13 37 0 14
111 18 375 16 184 -1 225 -4 250 -18z m913 -504 c15 -14 17 -46 20 -215 l4
-198 134 0 c74 0 134 -4 134 -9 0 -5 11 -12 25 -15 27 -7 29 -15 25 -86 -4
-74 -16 -80 -179 -80 l-139 0 -4 -215 c-3 -246 -5 -251 -74 -237 -50 10 -51
15 -53 260 l-1 192 -142 0 c-132 0 -143 2 -165 22 -37 35 -28 148 12 148 8 0
15 5 15 10 0 6 53 10 140 10 l140 0 0 178 c0 97 5 194 11 215 9 34 13 37 45
37 20 0 43 -7 52 -17z"/>
</g>
</svg>
